<?xml version="1.0" encoding="utf-8"?>
<!-- Generator: Adobe Illustrator 19.0.0, SVG Export Plug-In . SVG Version: 6.00 Build 0)  -->
<svg version="1.1" id="Group_1_1_" xmlns="http://www.w3.org/2000/svg" xmlns:xlink="http://www.w3.org/1999/xlink" x="0px" y="0px"
	 viewBox="0 0 1819 294" style="enable-background:new 0 0 1819 294;" xml:space="preserve">
<style type="text/css">
	.st0{fill:#013974;}
	.st1{fill:#B3995D;}
</style>
<g id="LiberSoft">
	<g>
		<path class="st0" d="M485.8,129.2H485c-0.2-4.5-1.8-8.3-5-11.4c-3.2-3.2-7-4.8-11.4-4.8h-3.3v-2.6h20.6V129.2z M485.8,271.6v18.8
			h-20.6v-2.6h3.3c4.5,0,8.3-1.6,11.4-4.8c3.2-3.2,4.8-7,5-11.4H485.8z M501.7,110.5v179.9H485V110.5H501.7z M501,129.2v-18.8h20.6
			v2.6c-0.2,0-1.3,0-3.3,0c-4.5,0-8.3,1.6-11.4,4.8c-3.2,3.2-4.8,7-5,11.4H501z M571.1,282.4v8H501v-8H571.1z M586.8,248.7
			l-14.9,41.6h-42.7l9.3-8c9.1,0,16.5-1.4,22.2-4.2c5.7-2.8,10.4-6.8,14-12c3.6-5.1,6.8-11,9.5-17.5H586.8z"/>
		<path class="st0" d="M640.5,152.6h-0.8c-0.2-3.9-1.9-7.2-5.3-9.9c-3.3-2.7-7.4-4-12.2-4c-0.2,0-1.4,0-3.6,0v-2.6h21.8V152.6z
			 M640.5,273.9v16.4h-21.8v-2.6h3.6c4.8,0,8.9-1.4,12.2-4.1c3.3-2.7,5.1-6,5.3-9.8H640.5z M655.9,136.2v154.2h-16.2V136.2H655.9z
			 M655.2,152.6v-16.4H677l-0.3,2.6h-3.3c-4.8,0-8.9,1.3-12.2,4c-3.3,2.7-5.1,6-5.3,9.9H655.2z M655.2,273.9h0.8
			c0.2,3.8,1.9,7,5.3,9.8c3.3,2.7,7.4,4.1,12.2,4.1h3.3l0.3,2.6h-21.8V273.9z"/>
		<path class="st0" d="M734.6,152.6h-0.8c-0.2-4.1-1.7-7.5-4.5-10c-2.8-2.6-6.5-3.9-10.9-3.9h-3.1v-2.6h19.3V152.6z M734.6,273.9
			v16.4h-19.3v-2.6h3.1c4.5,0,8.1-1.4,10.9-4.1c2.8-2.7,4.3-6,4.5-9.8H734.6z M750,136.2v154.2h-16.2V136.2H750z M767.7,136.2
			c4.6,0,10,0.4,16.1,1.3c6.1,0.9,12,2.6,17.6,5.1c5.7,2.6,10.4,6.4,14.1,11.6c3.8,5.1,5.7,12,5.7,20.6c0,5.1-1.4,9.9-4.1,14.4
			c-2.7,4.5-6.3,8.2-10.5,11.2c-4.3,3-8.8,5.1-13.6,6.3c8.4,0.9,15.8,3.2,22.2,7.1c6.4,3.9,11.5,8.7,15.3,14.5
			c3.8,5.8,5.7,12.2,5.7,19c0,8.4-1.8,15.4-5.3,20.9c-3.5,5.6-8.1,10-13.7,13.2c-5.7,3.3-11.8,5.6-18.5,6.9
			c-6.7,1.4-13.2,2.1-19.5,2.1h-31.4c0.2-2.6,0.3-5.1,0.3-7.7h30.8c7.4,0,14-1.2,19.9-3.7c5.9-2.5,10.6-6.4,14-11.7
			c3.4-5.3,5.1-12,5.1-20c0-8.2-1.8-14.9-5.4-19.9c-3.6-5.1-8.3-8.9-14.1-11.6c-5.8-2.7-12.3-4.5-19.3-5.4c-7-0.9-14.1-1.4-21.1-1.4
			v-2.6c4.6,0,9.6-0.3,14.9-1c5.3-0.7,10.2-2.1,14.8-4.2c4.5-2.1,8.3-5.3,11.2-9.5c2.9-4.2,4.4-9.8,4.4-16.8
			c0-10.8-3.2-18.6-9.5-23.5c-6.3-4.9-15.1-7.3-26.2-7.3h-28c0-0.2-0.2-0.9-0.6-2.2c-0.4-1.3-1-3.1-1.7-5.5H767.7z"/>
		<path class="st0" d="M891.1,152.4h-0.5c-0.2-3.9-1.6-7.2-4.4-9.8c-2.7-2.6-6.3-3.9-10.5-3.9h-3.6v-2.6h22.4L891.1,152.4z
			 M891.1,273.9l3.3,16.4h-22.4v-2.6h3.6c4.3,0,7.8-1.4,10.5-4.1c2.7-2.7,4.2-6,4.4-9.8H891.1z M907,136.2v154.2h-16.4V136.2H907z
			 M975.9,136.2v8h-69.4v-8H975.9z M964.1,209.4v7.7h-57.6v-7.7H964.1z M976.2,282.4l-0.5,8h-69.1v-8H976.2z M990.6,253.6
			l-14.1,36.8h-39.1l8.7-8c8.6,0,15.5-1.2,20.7-3.7c5.2-2.5,9.5-5.9,12.7-10.3c3.3-4.4,6.1-9.3,8.5-14.8H990.6z M975.9,132.1v6.7
			l-29.3-2.6c5.3,0,11-0.5,17-1.4C969.6,133.8,973.7,132.9,975.9,132.1z M964.1,195.3v14.6h-13.4v-0.5c3.6,0,6.3-1.1,8-3.2
			c1.7-2.1,2.6-4.7,2.6-7.6v-3.3H964.1z M964.1,216.6v14.6h-2.8v-3.3c0-2.9-0.9-5.4-2.6-7.6c-1.7-2.1-4.4-3.2-8-3.2v-0.5H964.1z
			 M975.9,143.4v17.7h-2.8v-3.9c0-3.6-1.2-6.7-3.5-9.3c-2.3-2.6-5.4-3.9-9.4-3.9v-0.8H975.9z"/>
		<path class="st0" d="M1038.9,152.4h-0.5c-0.2-3.9-1.6-7.2-4.4-9.8c-2.7-2.6-6.2-3.9-10.3-3.9h-3.6v-2.6h21.8L1038.9,152.4z
			 M1038.9,273.9l3.1,16.4h-21.8v-2.6h3.6c4.1,0,7.5-1.4,10.3-4.1c2.7-2.7,4.2-6,4.4-9.8H1038.9z M1054.5,136.2v154.2h-16.4V136.2
			H1054.5z M1053.8,273.9h0.8c0.2,3.8,1.6,7,4.4,9.8c2.7,2.7,6.2,4.1,10.3,4.1h3.3l0.3,2.6h-22.1L1053.8,273.9z M1084.6,136.2
			c8.1,0,15.3,0.9,21.7,2.8c6.4,1.9,11.9,4.6,16.4,8.2c4.5,3.6,8,8,10.4,13.1c2.4,5.1,3.6,11,3.6,17.5c0,7.2-1.7,13.9-5.1,20
			c-3.4,6.2-8.2,11.2-14.3,15.2c-6.1,3.9-13,6.3-20.7,7.2c2.9,1.2,6.3,3.9,10.2,8c3.9,4.1,7.2,8.1,9.9,12.1c4.5,6,8.4,11.2,12,15.5
			c3.5,4.4,7,8.5,10.4,12.5c3.6,3.9,6.9,7.4,9.9,10.3c3,2.9,6.3,5.2,9.8,6.8c3.5,1.6,7.6,2.4,12.2,2.4v2.6h-8
			c-9.4,0-17.2-1.2-23.3-3.6c-6.1-2.4-11-5.4-14.8-8.9c-3.8-3.5-7-6.9-9.8-10.2c-0.7-0.9-2.3-3-4.8-6.6c-2.5-3.5-5.2-7.3-8.1-11.4
			c-2.9-4.1-5.6-7.8-8-11.2c-2.4-3.3-3.9-5.4-4.4-6c-3.4-4.5-7.4-8.4-11.8-12c-4.5-3.5-9.2-5.3-14.1-5.3v-2.6
			c5.5,0.2,10.4,0.2,14.6,0c4.8-0.2,9.6-0.6,14.4-1.2c4.8-0.6,9.3-2.4,13.5-5.5c4.2-3.1,7.5-8.2,9.9-15.4c0.7-1.9,1.2-4.1,1.5-6.7
			c0.3-2.6,0.4-5.2,0.3-8c-0.2-4.8-1.1-9.1-2.7-12.8c-1.6-3.8-3.9-7-6.9-9.8c-3-2.7-6.6-4.9-10.7-6.4c-4.1-1.5-8.7-2.4-13.9-2.6
			c-8.1-0.3-15.1-0.4-21.1-0.3c-6,0.2-9,0.2-9,0c0-0.2-0.2-0.9-0.6-2.2c-0.4-1.3-1.1-3.2-1.9-5.8H1084.6z"/>
		<path class="st0" d="M1241.9,106.9c2.7,0,5.7,0.2,8.9,0.5c3.2,0.3,6.3,0.8,9.3,1.4c3,0.6,5.7,1.2,8.2,1.8c2.5,0.6,4.4,1.2,5.8,1.9
			V141h-2.3c0-8.2-2.8-14.7-8.5-19.4c-5.7-4.7-12.5-7.1-20.6-7.1c-9.4,0-17.1,3-22.9,8.9c-5.8,5.9-8.7,12.8-8.7,20.7
			c0,3.3,0.7,7.1,2.2,11.4c1.5,4.4,4.2,8.4,8.1,12.2l50.6,46.8c5.1,4.8,8.6,9.9,10.3,15.4c1.7,5.5,2.6,10.8,2.6,15.9
			c0,14.2-4.3,25.8-13,34.7c-8.7,8.9-20.3,13.4-35.1,13.4c-4.1,0-9-0.4-14.5-1.3c-5.6-0.9-11-2.4-16.2-4.5c-5.2-2.1-9.6-4.9-13-8.4
			c-0.5-2.7-0.8-6.2-0.8-10.3c0-4.1,0.3-8.4,1-13c0.7-4.5,1.6-8.7,2.8-12.5h2.3c-0.9,8.7,0.3,16.4,3.3,22.9
			c3.1,6.5,7.6,11.4,13.5,14.8s12.6,4.8,20.2,4.5c9.4-0.5,17.5-3.8,24.3-9.9c6.8-6.1,10.2-14.3,10.2-24.5c0-5-0.9-9.5-2.6-13.5
			c-1.7-4-4.2-7.5-7.5-10.4l-49.3-45.7c-5.1-4.8-8.7-10.1-10.8-15.8c-2.1-5.7-3.1-11.1-3.1-16.1c0-7.2,1.7-14.1,5.1-20.8
			c3.4-6.7,8.5-12.1,15.3-16.3C1223.9,109,1232.1,106.9,1241.9,106.9z M1274,109.4v5.4h-19.5v-5.4H1274z"/>
		<path class="st0" d="M1409.2,132.6c12,0,23.3,1.9,33.8,5.8s19.8,9.4,27.8,16.6c8,7.2,14.2,15.7,18.6,25.6
			c4.5,9.9,6.7,20.8,6.7,32.8c0,12-2.2,22.9-6.7,32.8c-4.5,9.9-10.7,18.4-18.6,25.6c-8,7.2-17.2,12.7-27.8,16.6
			c-10.5,3.9-21.8,5.8-33.8,5.8c-12,0-23.2-1.9-33.7-5.8c-10.5-3.9-19.7-9.4-27.6-16.6c-8-7.2-14.2-15.7-18.6-25.6
			c-4.5-9.8-6.7-20.8-6.7-32.8c0-12,2.2-22.9,6.7-32.8c4.5-9.9,10.7-18.4,18.6-25.6c8-7.2,17.2-12.7,27.6-16.6
			C1386,134.5,1397.2,132.6,1409.2,132.6z M1409.2,286.3c12.7,0,24.2-3.1,34.4-9.3c10.3-6.2,18.4-14.7,24.4-25.7c6-11,9-23.6,9-38
			c0-14.6-3-27.3-9-38.2c-6-10.9-14.1-19.4-24.4-25.6c-10.3-6.2-21.8-9.3-34.4-9.3c-12.5,0-23.9,3.1-34.2,9.3
			c-10.3,6.2-18.4,14.7-24.4,25.6c-6,10.9-9,23.6-9,38.2c0,14.4,3,27.1,9,38c6,11,14.1,19.5,24.4,25.7S1396.7,286.3,1409.2,286.3z"
			/>
		<path class="st0" d="M1548.5,152.4h-0.5c-0.2-3.9-1.7-7.2-4.5-9.8c-2.8-2.6-6.4-3.9-10.7-3.9h-3.6v-2.6h22.6L1548.5,152.4z
			 M1548.5,273.9l3.3,16.4h-22.6v-2.6h3.6c4.3,0,7.8-1.4,10.7-4.1c2.8-2.7,4.3-6,4.5-9.8H1548.5z M1564.2,136.2v154.2H1548V136.2
			H1564.2z M1563.7,273.9h0.5c0.2,3.8,1.7,7,4.5,9.8c2.8,2.7,6.4,4.1,10.7,4.1h3.6v2.6h-22.6L1563.7,273.9z M1634.1,136.2v8h-70.4
			v-8H1634.1z M1622,209.4v7.7h-58.3v-7.7H1622z M1634.1,132.1v6.7l-29.6-2.6c3.6,0,7.4-0.2,11.3-0.6c3.9-0.4,7.6-1,10.9-1.7
			C1630.1,133.2,1632.5,132.6,1634.1,132.1z M1622,195.3v14.6h-13.4v-0.5c3.8,0,6.5-1.1,8.1-3.2c1.6-2.1,2.4-4.7,2.4-7.6v-3.3H1622z
			 M1622,216.6v14.6h-2.8v-3.3c0-2.9-0.8-5.4-2.4-7.6c-1.6-2.1-4.3-3.2-8.1-3.2v-0.5H1622z M1634.1,143.4v17.7h-2.8v-3.9
			c0-3.6-1.2-6.7-3.5-9.3c-2.3-2.6-5.4-3.9-9.4-3.9v-0.8H1634.1z"/>
		<path class="st0" d="M1663.6,131.8c1.5,0.5,3.9,1.1,7.1,1.8c3.2,0.7,6.7,1.2,10.7,1.7c3.9,0.4,7.6,0.6,11.1,0.6l-28.8,2.6V131.8z
			 M1804.7,135.9v7.7h-141.1v-7.7H1804.7z M1679.3,143.1v0.5c-3.9,0.2-7.1,1.5-9.4,4c-2.3,2.5-3.5,5.5-3.5,9.1v4.1h-2.8v-17.7
			H1679.3z M1726.3,273.9v16.4h-18.8v-2.6c0.2,0,1.2,0,3.1,0c4.1,0,7.6-1.4,10.5-4.1c2.9-2.7,4.5-6,4.6-9.8H1726.3z M1742.5,136.9
			v153.4h-16.7V136.9H1742.5z M1741.8,273.9h0.8c0.2,3.8,1.7,7,4.6,9.8c2.9,2.7,6.4,4.1,10.5,4.1h2.8v2.6h-18.8V273.9z
			 M1804.7,131.8v6.7l-28.8-2.6c3.4,0,7.1-0.2,10.9-0.6c3.9-0.4,7.4-1,10.7-1.7C1800.8,132.9,1803.2,132.3,1804.7,131.8z
			 M1804.7,143.1v17.7h-2.8v-4.1c0-3.6-1.2-6.6-3.5-9.1c-2.3-2.5-5.4-3.8-9.4-4v-0.5H1804.7z"/>
	</g>
</g>
<g id="NicePng_x5F_book-logo-png_x5F_7936442_xA0_Imagem_1_">
	<g>
		<path class="st1" d="M40,1c2.3,0,4.7,0,7,0c1.1,0.3,2.2,0.7,3.4,0.8C86.5,6.3,120.3,18.1,152.5,35c5.5,2.9,7.8,6.2,7.8,12.7
			c-0.2,68.6-0.2,137.3-0.2,205.9c0,1.3,0,2.7,0,4c0,3.6-1.6,4.5-4.7,2.7c-0.6-0.3-1.2-0.6-1.8-0.9c-34-17.8-69.8-29.8-108.2-33.4
			c-3.6-0.3-5.5-1.8-5.4-5.6c0.1-2,0-4,0-6C40,143.3,40,72.1,40,1z"/>
		<path class="st1" d="M279,1c2.3,0,4.7,0,7,0c0,73,0.1,146,0.2,219c0,4.4-2.1,5.7-6,6.1c-37.8,3.8-73.2,15.4-106.8,33
			c-6.2,3.3-6.7,3.1-6.7-3.7c0-70,0-140-0.1-210c0-4.7,1.6-7.3,5.6-9.4c27-14.6,55.4-25.3,85.6-31.2C264.9,3.4,272,2.2,279,1z"/>
		<path class="st1" d="M1,51c13.2-2.2,13.2-2.2,13.2,11.1c0,61.7,0,123.3,0,185c0,7.8,0.1,7.6,7.8,7.3c31.1-1.4,61.5,2.7,91.4,10.8
			c15.1,4.1,29.9,9.3,44.2,15.7c3.6,1.6,6.8,1.8,10.5,0.2c31.7-13.9,64.7-22.7,99.2-25.8c12.3-1.1,24.6-2.1,36.9-0.9
			c7.2,0.7,7.5,0.4,7.5-7.2c0-60.7,0-121.3,0-182c0-2.3,0-4.7,0-7c0-8.6,0.7-9.2,9.2-7.9c1.3,0.2,2.6,0.5,3.9,0.7
			c0,75.3,0,150.7,0,226c-3.3,1.7-6.7,2.3-10.6,1.8c-33.3-4.2-66.7-4.7-99.9,0.4c-14.8,2.3-29.5,5-43.5,10.7c-5,0-10,0-15,0
			c-1.7-0.6-3.4-1.3-5.2-1.9c-45.3-14-91.6-14.8-138.2-9.4c-4.4,0.5-8.3,0.4-11.6-2.7C1,201,1,126,1,51z"/>
		<path class="st1" d="M20.9,137c0-34.5,0-69,0-103.5c0-7.1,3.7-9.7,10.5-7.5c1.7,0.6,2.4,1.7,2.5,3.3c0.1,2,0.2,4,0.2,6
			c0,62.5,0,125,0,187.5c0,8.4,0.2,8.4,8.6,9.1c30.7,2.7,59.9,10.9,88,23.4c8.1,3.6,16.1,7.2,23.7,11.8c5.9,3.6,11.3,3.5,17.3,0.1
			c30.9-17.1,63.7-28.8,98.8-33.8c4.9-0.7,9.9-1.2,14.9-1.6c6.7-0.6,7.3-1.1,7.3-7.8c0-61.2,0-122.3,0-183.5c0-2.2,0-4.3,0-6.5
			c0-8,1.6-9.4,9.4-8.1c2.1,0.3,3.4,1.3,3.6,3.4c0.1,1.8,0.2,3.7,0.2,5.5c0,68.2,0,136.3,0,204.5c0,8.8,0,8.9-8.5,8.7
			c-44-0.8-86.1,7.9-126.5,25c-5.5,2.3-10.6,2-15.9-0.2c-28.4-12-58-19.8-88.7-23.2c-12.9-1.4-25.9-1.8-38.9-1.6
			c-6.1,0.1-6.5-0.4-6.6-6.6C20.8,206.7,20.9,171.8,20.9,137z"/>
	</g>
</g>
</svg>
